<mxfile host="app.diagrams.net" modified="2021-03-05T06:22:34.438Z" agent="5.0 (Macintosh; Intel Mac OS X 11_2_0) AppleWebKit/537.36 (KHTML, like Gecko) Chrome/88.0.4324.192 Safari/537.36" etag="l55EOtprmD8iBMQ01i_4" version="14.4.4" type="github">
  <diagram id="4L9m-Eq9d44tFIFm6yLC" name="第 1 页">
    <mxGraphModel dx="1426" dy="722" grid="1" gridSize="10" guides="1" tooltips="1" connect="1" arrows="1" fold="1" page="1" pageScale="1" pageWidth="827" pageHeight="1169" math="0" shadow="0">
      <root>
        <mxCell id="0" />
        <mxCell id="1" parent="0" />
        <mxCell id="2dhdTTj2iDfjn58IDGQg-7" value="" style="rounded=1;" vertex="1" parent="1">
          <mxGeometry x="69.5" y="100" width="629" height="60" as="geometry" />
        </mxCell>
        <mxCell id="2dhdTTj2iDfjn58IDGQg-8" value="静态防御博弈" style="rounded=1;" vertex="1" parent="1">
          <mxGeometry x="189" y="110" width="110" height="40" as="geometry" />
        </mxCell>
        <mxCell id="2dhdTTj2iDfjn58IDGQg-9" value="策略博弈" style="rounded=1;" vertex="1" parent="1">
          <mxGeometry x="329" y="110" width="110" height="40" as="geometry" />
        </mxCell>
        <mxCell id="2dhdTTj2iDfjn58IDGQg-10" value="特种网络&#xa;环境博弈" style="rounded=1;" vertex="1" parent="1">
          <mxGeometry x="529" y="110" width="110" height="40" as="geometry" />
        </mxCell>
        <mxCell id="2dhdTTj2iDfjn58IDGQg-11" value="" style="endArrow=none;dashed=1;dashPattern=1 3;strokeWidth=2;" edge="1" parent="1">
          <mxGeometry width="50" height="50" relative="1" as="geometry">
            <mxPoint x="469" y="129.5" as="sourcePoint" />
            <mxPoint x="509" y="130" as="targetPoint" />
          </mxGeometry>
        </mxCell>
        <mxCell id="2dhdTTj2iDfjn58IDGQg-12" value="博弈场景规划" style="text;strokeColor=none;fillColor=none;align=center;verticalAlign=middle;rounded=0;" vertex="1" parent="1">
          <mxGeometry x="80" y="120" width="80" height="20" as="geometry" />
        </mxCell>
        <mxCell id="2dhdTTj2iDfjn58IDGQg-13" value="" style="rounded=1;" vertex="1" parent="1">
          <mxGeometry x="69.5" y="200" width="629" height="110" as="geometry" />
        </mxCell>
        <mxCell id="2dhdTTj2iDfjn58IDGQg-14" value="节点层次&#xa;构建模块" style="rounded=1;" vertex="1" parent="1">
          <mxGeometry x="170" y="210" width="110" height="40" as="geometry" />
        </mxCell>
        <mxCell id="2dhdTTj2iDfjn58IDGQg-15" value="方程处理模块" style="rounded=1;" vertex="1" parent="1">
          <mxGeometry x="299" y="210" width="110" height="40" as="geometry" />
        </mxCell>
        <mxCell id="2dhdTTj2iDfjn58IDGQg-16" value="圆环半径&#xa;生成模块" style="rounded=1;" vertex="1" parent="1">
          <mxGeometry x="430" y="210" width="110" height="40" as="geometry" />
        </mxCell>
        <mxCell id="2dhdTTj2iDfjn58IDGQg-17" value="网络环境&#xa;绘制系统" style="text;strokeColor=none;fillColor=none;align=center;verticalAlign=middle;rounded=0;" vertex="1" parent="1">
          <mxGeometry x="80" y="245" width="80" height="20" as="geometry" />
        </mxCell>
        <mxCell id="2dhdTTj2iDfjn58IDGQg-18" value="等分圆&#xa;生成模块" style="rounded=1;" vertex="1" parent="1">
          <mxGeometry x="560" y="210" width="110" height="40" as="geometry" />
        </mxCell>
        <mxCell id="2dhdTTj2iDfjn58IDGQg-19" value="最小公倍数&#xa;计算模块" style="rounded=1;" vertex="1" parent="1">
          <mxGeometry x="170" y="260" width="110" height="40" as="geometry" />
        </mxCell>
        <mxCell id="2dhdTTj2iDfjn58IDGQg-20" value="节点关系&#xa;生成模块" style="rounded=1;" vertex="1" parent="1">
          <mxGeometry x="299" y="260" width="110" height="40" as="geometry" />
        </mxCell>
        <mxCell id="2dhdTTj2iDfjn58IDGQg-21" value="" style="endArrow=none;dashed=1;dashPattern=1 3;strokeWidth=2;" edge="1" parent="1">
          <mxGeometry width="50" height="50" relative="1" as="geometry">
            <mxPoint x="450" y="279.5" as="sourcePoint" />
            <mxPoint x="500" y="279.5" as="targetPoint" />
            <Array as="points" />
          </mxGeometry>
        </mxCell>
        <mxCell id="2dhdTTj2iDfjn58IDGQg-28" value="" style="shape=flexArrow;endArrow=classic;" edge="1" parent="1">
          <mxGeometry width="50" height="50" relative="1" as="geometry">
            <mxPoint x="190" y="160" as="sourcePoint" />
            <mxPoint x="190" y="200" as="targetPoint" />
          </mxGeometry>
        </mxCell>
        <mxCell id="2dhdTTj2iDfjn58IDGQg-29" value="" style="shape=flexArrow;endArrow=classic;" edge="1" parent="1">
          <mxGeometry width="50" height="50" relative="1" as="geometry">
            <mxPoint x="383.79999999999995" y="160" as="sourcePoint" />
            <mxPoint x="383.79999999999995" y="200" as="targetPoint" />
          </mxGeometry>
        </mxCell>
        <mxCell id="2dhdTTj2iDfjn58IDGQg-30" value="" style="shape=flexArrow;endArrow=classic;" edge="1" parent="1">
          <mxGeometry width="50" height="50" relative="1" as="geometry">
            <mxPoint x="570" y="160" as="sourcePoint" />
            <mxPoint x="570" y="200" as="targetPoint" />
          </mxGeometry>
        </mxCell>
        <mxCell id="2dhdTTj2iDfjn58IDGQg-31" value="" style="shape=flexArrow;endArrow=classic;" edge="1" parent="1">
          <mxGeometry width="50" height="50" relative="1" as="geometry">
            <mxPoint x="189" y="310" as="sourcePoint" />
            <mxPoint x="189" y="350" as="targetPoint" />
          </mxGeometry>
        </mxCell>
        <mxCell id="2dhdTTj2iDfjn58IDGQg-32" value="" style="shape=flexArrow;endArrow=classic;" edge="1" parent="1">
          <mxGeometry width="50" height="50" relative="1" as="geometry">
            <mxPoint x="382.79999999999995" y="310" as="sourcePoint" />
            <mxPoint x="382.79999999999995" y="350" as="targetPoint" />
          </mxGeometry>
        </mxCell>
        <mxCell id="2dhdTTj2iDfjn58IDGQg-33" value="" style="shape=flexArrow;endArrow=classic;" edge="1" parent="1">
          <mxGeometry width="50" height="50" relative="1" as="geometry">
            <mxPoint x="569" y="310" as="sourcePoint" />
            <mxPoint x="569" y="350" as="targetPoint" />
          </mxGeometry>
        </mxCell>
        <mxCell id="2dhdTTj2iDfjn58IDGQg-37" value="" style="rounded=1;" vertex="1" parent="1">
          <mxGeometry x="69.5" y="350" width="629" height="110" as="geometry" />
        </mxCell>
        <mxCell id="2dhdTTj2iDfjn58IDGQg-38" value="节点层次&#xa;构建模块" style="rounded=1;" vertex="1" parent="1">
          <mxGeometry x="170" y="360" width="110" height="40" as="geometry" />
        </mxCell>
        <mxCell id="2dhdTTj2iDfjn58IDGQg-39" value="方程处理模块" style="rounded=1;" vertex="1" parent="1">
          <mxGeometry x="299" y="360" width="110" height="40" as="geometry" />
        </mxCell>
        <mxCell id="2dhdTTj2iDfjn58IDGQg-40" value="圆环半径&#xa;生成模块" style="rounded=1;" vertex="1" parent="1">
          <mxGeometry x="430" y="360" width="110" height="40" as="geometry" />
        </mxCell>
        <mxCell id="2dhdTTj2iDfjn58IDGQg-41" value="网络环境&#xa;绘制系统" style="text;strokeColor=none;fillColor=none;align=center;verticalAlign=middle;rounded=0;" vertex="1" parent="1">
          <mxGeometry x="80" y="395" width="80" height="20" as="geometry" />
        </mxCell>
        <mxCell id="2dhdTTj2iDfjn58IDGQg-42" value="等分圆&#xa;生成模块" style="rounded=1;" vertex="1" parent="1">
          <mxGeometry x="560" y="360" width="110" height="40" as="geometry" />
        </mxCell>
        <mxCell id="2dhdTTj2iDfjn58IDGQg-43" value="最小公倍数&#xa;计算模块" style="rounded=1;" vertex="1" parent="1">
          <mxGeometry x="170" y="410" width="110" height="40" as="geometry" />
        </mxCell>
        <mxCell id="2dhdTTj2iDfjn58IDGQg-44" value="节点关系&#xa;生成模块" style="rounded=1;" vertex="1" parent="1">
          <mxGeometry x="299" y="410" width="110" height="40" as="geometry" />
        </mxCell>
        <mxCell id="2dhdTTj2iDfjn58IDGQg-45" value="" style="endArrow=none;dashed=1;dashPattern=1 3;strokeWidth=2;" edge="1" parent="1">
          <mxGeometry width="50" height="50" relative="1" as="geometry">
            <mxPoint x="450" y="429.5" as="sourcePoint" />
            <mxPoint x="500" y="429.5" as="targetPoint" />
            <Array as="points" />
          </mxGeometry>
        </mxCell>
      </root>
    </mxGraphModel>
  </diagram>
</mxfile>
